<svg width="520" height="520" viewBox="0 0 520 520" fill="none" xmlns="http://www.w3.org/2000/svg">
<g clip-path="url(#clip0_13_129)">
<rect width="520" height="520" rx="85" fill="white"/>
<rect width="520" height="520" rx="85" fill="url(#paint0_linear_13_129)"/>
<rect x="-2" y="272.313" width="144.913" height="217.172" rx="72.4567" transform="rotate(-30.3916 -2 272.313)" fill="#F1CA03"/>
<g filter="url(#filter0_n_13_129)">
<path d="M635 502C635 665.476 502.476 798 339 798C175.524 798 43 665.476 43 502C43 338.524 175.524 206 339 206C502.476 206 635 338.524 635 502Z" fill="url(#paint1_linear_13_129)"/>
</g>
<path d="M122.002 146.743L101.865 90.0138C96.2544 74.2061 77.9041 67.0813 63.0961 74.961C48.6447 82.6509 44.0914 101.199 53.3389 114.706L87.3446 164.379C92.9859 172.619 103.919 175.303 112.735 170.612C121.309 166.049 125.251 155.897 122.002 146.743Z" fill="white"/>
<path d="M181.216 133.035L189.119 57.47C190.81 41.3014 177.93 27.3175 161.678 27.6765C145.763 28.0281 133.607 42.0044 135.466 57.8138L144.337 133.271C145.454 142.771 153.61 149.865 163.173 149.654C172.514 149.448 180.244 142.328 181.216 133.035Z" fill="white"/>
<g opacity="0.55" filter="url(#filter1_f_13_129)">
<circle cx="312.999" cy="353.44" r="33.4493" fill="#FF4AB1"/>
</g>
<g opacity="0.55" filter="url(#filter2_f_13_129)">
<circle cx="187.449" cy="320.449" r="33.4493" fill="#FF4AB1"/>
</g>
<ellipse cx="221.357" cy="310.827" rx="15.1209" ry="19.2448" transform="rotate(22.3302 221.357 310.827)" fill="#302B00"/>
<ellipse cx="293.517" cy="328.875" rx="15.1209" ry="19.2448" transform="rotate(22.3302 293.517 328.875)" fill="#2E2A00"/>
<path d="M270.738 364.244C281.02 363.302 291.437 366.527 292.379 376.809C293.321 387.091 279.615 401.985 269.333 402.927C256.254 404.125 244.756 401.993 232.354 398.345C221.294 395.092 212.603 389.482 203.089 382.65C194.703 376.626 193.339 360.666 199.363 352.28C205.386 343.893 216.515 346.256 224.902 352.28C237.775 361.525 253.55 365.819 269.333 364.373L270.738 364.244Z" fill="#231F00"/>
<path d="M262.145 370.541C262.554 370.298 264.439 366.351 263.97 366.27L247.933 364.437C246.889 364.257 243.886 363.429 242.893 363.063L229.146 357.106C228.883 357.009 228.187 359.268 228.237 359.544C229.089 364.253 230.482 369.78 235.11 370.999L248.398 374.664C252.914 375.854 258.13 372.926 262.145 370.541Z" fill="white" stroke="white" stroke-width="4" stroke-linecap="round"/>
<g filter="url(#filter3_d_13_129)">
<circle cx="467" cy="493" r="106" fill="#F5FAFF"/>
<ellipse cx="421.894" cy="449.698" rx="13.983" ry="15.7872" fill="#2D2E1A"/>
<ellipse cx="467" cy="460.523" rx="13.983" ry="15.7872" fill="#2D2E1A"/>
</g>
</g>
<defs>
<filter id="filter0_n_13_129" x="43" y="206" width="592" height="592" filterUnits="userSpaceOnUse" color-interpolation-filters="sRGB">
<feFlood flood-opacity="0" result="BackgroundImageFix"/>
<feBlend mode="normal" in="SourceGraphic" in2="BackgroundImageFix" result="shape"/>
<feTurbulence type="fractalNoise" baseFrequency="inf inf" stitchTiles="stitch" numOctaves="3" result="noise" seed="0" />
<feColorMatrix in="noise" type="luminanceToAlpha" result="alphaNoise" />
<feComponentTransfer in="alphaNoise" result="coloredNoise1">
<feFuncA type="discrete" tableValues="1 1 1 1 1 1 1 1 1 1 1 1 1 1 1 1 1 1 1 1 1 1 1 1 1 1 1 1 1 1 1 1 1 1 1 1 1 1 1 1 1 1 1 1 1 1 1 1 1 1 1 0 0 0 0 0 0 0 0 0 0 0 0 0 0 0 0 0 0 0 0 0 0 0 0 0 0 0 0 0 0 0 0 0 0 0 0 0 0 0 0 0 0 0 0 0 0 0 0 0 "/>
</feComponentTransfer>
<feComposite operator="in" in2="shape" in="coloredNoise1" result="noise1Clipped" />
<feFlood flood-color="#FFDB4A" result="color1Flood" />
<feComposite operator="in" in2="noise1Clipped" in="color1Flood" result="color1" />
<feMerge result="effect1_noise_13_129">
<feMergeNode in="shape" />
<feMergeNode in="color1" />
</feMerge>
</filter>
<filter id="filter1_f_13_129" x="221.149" y="261.591" width="183.699" height="183.699" filterUnits="userSpaceOnUse" color-interpolation-filters="sRGB">
<feFlood flood-opacity="0" result="BackgroundImageFix"/>
<feBlend mode="normal" in="SourceGraphic" in2="BackgroundImageFix" result="shape"/>
<feGaussianBlur stdDeviation="29.2" result="effect1_foregroundBlur_13_129"/>
</filter>
<filter id="filter2_f_13_129" x="95.6" y="228.6" width="183.699" height="183.699" filterUnits="userSpaceOnUse" color-interpolation-filters="sRGB">
<feFlood flood-opacity="0" result="BackgroundImageFix"/>
<feBlend mode="normal" in="SourceGraphic" in2="BackgroundImageFix" result="shape"/>
<feGaussianBlur stdDeviation="29.2" result="effect1_foregroundBlur_13_129"/>
</filter>
<filter id="filter3_d_13_129" x="243.6" y="353.6" width="446.8" height="446.8" filterUnits="userSpaceOnUse" color-interpolation-filters="sRGB">
<feFlood flood-opacity="0" result="BackgroundImageFix"/>
<feColorMatrix in="SourceAlpha" type="matrix" values="0 0 0 0 0 0 0 0 0 0 0 0 0 0 0 0 0 0 127 0" result="hardAlpha"/>
<feOffset dy="84"/>
<feGaussianBlur stdDeviation="58.7"/>
<feComposite in2="hardAlpha" operator="out"/>
<feColorMatrix type="matrix" values="0 0 0 0 1 0 0 0 0 1 0 0 0 0 1 0 0 0 1 0"/>
<feBlend mode="normal" in2="BackgroundImageFix" result="effect1_dropShadow_13_129"/>
<feBlend mode="normal" in="SourceGraphic" in2="effect1_dropShadow_13_129" result="shape"/>
</filter>
<linearGradient id="paint0_linear_13_129" x1="464.5" y1="38" x2="50" y2="487.5" gradientUnits="userSpaceOnUse">
<stop stop-color="#2F2F2F"/>
<stop offset="1"/>
</linearGradient>
<linearGradient id="paint1_linear_13_129" x1="489.581" y1="264.081" x2="-102.419" y2="703.779" gradientUnits="userSpaceOnUse">
<stop stop-color="#FFF97C"/>
<stop offset="0.461538" stop-color="#FFFC3B"/>
<stop offset="1" stop-color="#19D98F"/>
</linearGradient>
<clipPath id="clip0_13_129">
<rect width="520" height="520" rx="85" fill="white"/>
</clipPath>
</defs>
</svg>
